<?xml version="1.0" encoding="utf-8"?>
<!-- Generator: Adobe Illustrator 25.0.1, SVG Export Plug-In . SVG Version: 6.00 Build 0)  -->
<svg version="1.1" id="Capa_1" xmlns="http://www.w3.org/2000/svg" xmlns:xlink="http://www.w3.org/1999/xlink" x="0px" y="0px"
	 viewBox="0 0 100 100" style="enable-background:new 0 0 100 100;" xml:space="preserve">
<style type="text/css">
	.st0{fill:#FFFFFF;}
	.st1{fill:#C1272D;}
</style>
<g>
	<path class="st0" d="M92.36,54.84c-0.85,0.01-1.68,0.07-2.49,0.19c-3.31,0.47-6.34,1.79-8.87,3.74c-0.03,0.02-0.06,0.05-0.09,0.07
		c-1.45,1.13-2.73,2.46-3.8,3.96c-0.8,1.12-1.48,2.32-2.02,3.6c0,0,0,0,0,0c-0.19,0.2-0.38,0.4-0.57,0.6
		C67.73,74,58.91,79.02,49,81.09c-1.34,0.28-2.7,0.51-4.08,0.68c-2.02,0.25-4.08,0.38-6.17,0.38c-0.81,0-1.62-0.02-2.42-0.06
		c1.46-5.42,3.8-10.48,6.88-15c2.09-3.08,4.52-5.91,7.23-8.44c1.75-1.63,3.61-3.14,5.58-4.51c2.69-1.87,5.57-3.48,8.61-4.8
		c0.16-0.07,0.33-0.14,0.5-0.21c0.15-0.06,0.3-0.13,0.46-0.19c0.11-0.04,0.21-0.09,0.32-0.13c0.09-0.04,0.19-0.08,0.28-0.11
		c0.04-0.02,0.08-0.03,0.12-0.05c0.11-0.04,0.22-0.09,0.33-0.13c0.24-0.09,0.48-0.18,0.72-0.27c0.1-0.04,0.2-0.07,0.3-0.11
		c0.03-0.01,0.07-0.03,0.11-0.04h0c0.06,0,0.11,0.01,0.17,0.01c-0.03-0.02-0.05-0.03-0.08-0.04c0.14-0.05,0.28-0.1,0.41-0.14
		c0.01,0,0.02-0.01,0.03-0.01c0.13-0.04,0.26-0.09,0.38-0.13c0.91-0.3,1.84-0.58,2.78-0.83c2.19-0.59,4.43-1.03,6.73-1.31
		c1.03-0.13,2.06-0.22,3.11-0.29c1.83,0.07,3.56,0.57,5.08,1.39c3.01,1.62,5.23,4.52,5.94,7.97C92.34,54.76,92.35,54.8,92.36,54.84z
		"/>
</g>
<g>
	<path class="st0" d="M47.58,29.88C47.58,29.88,47.58,29.88,47.58,29.88c-2.49-3.57-4.53-7.48-6.02-11.64l0,0
		C36.46,10.95,29.46,5.08,21.28,1.37C14.85,7,10.78,15.28,10.78,24.5c0,6.85,2.24,13.18,6.04,18.3c6.38-2.98,13.5-4.64,21.01-4.64
		c8.84,0,17.15,2.31,24.34,6.36c0.14-0.05,0.28-0.1,0.41-0.14c0.01,0,0.02-0.01,0.03-0.01c0.13-0.04,0.26-0.09,0.38-0.13
		C56.9,40.6,51.63,35.69,47.58,29.88z"/>
</g>
<g>
	<path class="st0" d="M17.69,44.82c1.85,2.49,4.06,4.69,6.57,6.53c2.16,1.58,4.54,2.89,7.08,3.87c8.02-5.53,17.73-8.77,28.21-8.77
		c1.15,0,2.28,0.04,3.41,0.11h0c0.03-0.01,0.06-0.02,0.09-0.03c-7.2-4.05-15.5-6.36-24.34-6.36C31.19,40.18,24.07,41.85,17.69,44.82
		z"/>
</g>
<g>
	<path class="st0" d="M32.68,56.67c3.43,1.32,7.16,2.05,11.06,2.05c1.09,0,2.17-0.06,3.23-0.17c1.75-1.63,3.61-3.14,5.58-4.51
		c2.69-1.87,5.57-3.48,8.61-4.8c0.16-0.07,0.33-0.14,0.5-0.21c0.15-0.06,0.3-0.13,0.46-0.19c0.11-0.04,0.21-0.09,0.32-0.13
		c0.09-0.04,0.19-0.08,0.28-0.11c0.04-0.02,0.08-0.03,0.12-0.05c0.11-0.04,0.22-0.09,0.33-0.13c0.24-0.09,0.48-0.18,0.72-0.27
		c0.1-0.04,0.2-0.07,0.3-0.11c0.03-0.01,0.07-0.03,0.11-0.04c-1.13-0.08-2.26-0.11-3.41-0.11C50.42,47.9,40.7,51.14,32.68,56.67z"/>
</g>
<g>
	<path class="st0" d="M59.94,38.77c-0.03-0.02-0.05-0.03-0.08-0.04c-0.03,0.01-0.06,0.02-0.09,0.03
		C59.83,38.76,59.88,38.76,59.94,38.77z"/>
	<path class="st1" d="M59.86,38.73c-0.03,0.01-0.06,0.02-0.09,0.03c0.06,0,0.11,0.01,0.17,0.01C59.91,38.75,59.89,38.74,59.86,38.73
		L59.86,38.73z"/>
</g>
<g>
	<path class="st0" d="M40.39,84.76c-2.92,3.57-6.34,6.72-10.13,9.36c-2.75,1.91-5.69,3.55-8.8,4.88
		c-4.19-4.89-6.87-11.11-7.32-17.95c0-0.05-0.01-0.09-0.01-0.14c-0.04-0.63-0.06-1.27-0.06-1.91c0-7.79,2.9-14.9,7.67-20.32
		c2.59,0.67,5.05,1.67,7.33,2.95c3.77,2.11,7.04,5,9.61,8.44c-3.08,4.52-5.42,9.58-6.88,15c0.8,0.04,1.61,0.06,2.42,0.06
		C36.31,85.14,38.37,85.01,40.39,84.76z"/>
</g>
</svg>
